<?xml version="1.0" encoding="UTF-8"?>
<svg version="1.1" xmlns="http://www.w3.org/2000/svg" width="204" height="192">
<path d="M0 0 C4.06602465 0.00010374 8.13188285 -0.01381742 12.19786739 -0.03077221 C15.36250104 -0.04184753 18.5270928 -0.043921 21.69174385 -0.04339027 C23.19366621 -0.04456673 24.69558979 -0.04896969 26.1974926 -0.05672264 C28.27290153 -0.06647989 30.34792522 -0.06366754 32.42333984 -0.05761719 C33.59956406 -0.05904221 34.77578827 -0.06046722 35.98765564 -0.06193542 C38.86889648 0.18530273 38.86889648 0.18530273 41.86889648 2.18530273 C42.16046066 4.96110647 42.25751881 7.5135594 42.2253418 10.29101562 C42.22738617 11.12850845 42.22943054 11.96600128 42.23153687 12.82887268 C42.2345524 15.60545469 42.2160462 18.38144728 42.19702148 21.15795898 C42.19396537 23.08084465 42.19208813 25.00373253 42.19134521 26.92662048 C42.18673744 30.95930431 42.17229238 34.99178897 42.15014648 39.02441406 C42.12184477 44.20556266 42.1109337 49.38655431 42.10646439 54.56777287 C42.10231685 58.53874802 42.09250529 62.50969111 42.08058929 66.48064995 C42.07487385 68.39171528 42.07011939 70.30278373 42.06632233 72.21385384 C42.05948258 74.87895307 42.04586168 77.54392534 42.0300293 80.20898438 C42.02891144 81.00641052 42.02779358 81.80383667 42.02664185 82.62542725 C41.98358307 88.07061615 41.98358307 88.07061615 40.86889648 89.18530273 C38.81504566 89.30051983 36.75720251 89.3449963 34.70019531 89.36230469 C34.05619781 89.36887589 33.41220032 89.37544708 32.74868774 89.38221741 C30.60776665 89.40199879 28.46691601 89.41362645 26.32592773 89.42358398 C25.59515203 89.42765951 24.86437634 89.43173504 24.11145592 89.43593407 C20.24015966 89.45682005 16.36889907 89.47110813 12.49755859 89.48046875 C8.50379239 89.49151077 4.51058684 89.52587703 0.51701832 89.56564045 C-2.55685944 89.59183465 -5.63060458 89.60016325 -8.70458412 89.60375023 C-10.17614826 89.60861265 -11.64770662 89.62021698 -13.11916161 89.63878822 C-15.18502939 89.66323089 -17.2494605 89.66220601 -19.31542969 89.65527344 C-21.07629158 89.6640728 -21.07629158 89.6640728 -22.87272644 89.67304993 C-28.01174596 88.90378895 -31.08344147 86.34324499 -34.50610352 82.56030273 C-36.13110352 80.18530273 -36.13110352 80.18530273 -36.13110352 78.18530273 C-36.79110352 78.18530273 -37.45110352 78.18530273 -38.13110352 78.18530273 C-42.67439593 73.32230324 -45.82564614 67.47912952 -48.63110352 61.49780273 C-49.01202148 60.68907715 -49.39293945 59.88035156 -49.78540039 59.04711914 C-56.3782389 44.51341233 -60.23578478 29.40275456 -60.31860352 13.43530273 C-60.3327832 12.18233398 -60.34696289 10.92936523 -60.36157227 9.63842773 C-60.13926456 6.30758012 -59.43551871 4.20836654 -58.13110352 1.18530273 C-38.7493678 0.22919996 -19.40065487 -0.0027186 0 0 Z " fill="#BACDD5" transform="translate(139.131103515625,50.814697265625)"/>
<path d="M0 0 C0.66 0.33 1.32 0.66 2 1 C1.60167969 1.59425781 1.20335937 2.18851563 0.79296875 2.80078125 C-8.7972032 17.80438359 -9.4557492 34.82609587 -6 52 C-0.82634562 74.84986557 9.87510452 95.96549503 26 113 C26.66 113.33 27.32 113.66 28 114 C28 114.66 28 115.32 28 116 C28.56332031 116.26941406 29.12664062 116.53882813 29.70703125 116.81640625 C32.12885818 118.06651453 34.38486906 119.48027945 36.6875 120.9375 C43.88922492 125.27334026 50.66904217 127.2426402 59 128 C59 128.66 59 129.32 59 130 C48.11121595 135.68576901 39.70543103 139.87292667 27.453125 136.24609375 C15.38112761 131.76595807 6.22309849 123.69555415 -2 114 C-2.33 113.67 -2.66 113.34 -3 113 C-3.433125 114.134375 -3.86625 115.26875 -4.3125 116.4375 C-4.869375 117.613125 -5.42625 118.78875 -6 120 C-6.99 120.33 -7.98 120.66 -9 121 C-9.69709521 122.31767997 -10.35946677 123.65391701 -11 125 C-16.25505379 131.20491093 -22.34957868 137.18413661 -30.5625 138.625 C-36.26855849 137.58753482 -39.62405799 134.89192026 -43 130.25 C-44.55148341 125.20767891 -44.45083007 120.82740506 -42.0078125 116.06640625 C-38.80507987 111.50867135 -34.76951922 107.59044687 -30.875 103.625 C-30.36026123 103.10059326 -29.84552246 102.57618652 -29.31518555 102.03588867 C-24.65714046 97.42000465 -21.44395978 95.87872179 -15 95 C-16.57288899 90.03298214 -18.29199282 85.31042792 -20.4375 80.5625 C-28.02849547 62.25209881 -31.09096312 38.7833885 -24.29296875 19.8046875 C-19.22762389 8.81702101 -10.97823952 4.25204747 0 0 Z " fill="#5266A1" transform="translate(84,30)"/>
<path d="M0 0 C-0.33 27.39 -0.66 54.78 -1 83 C-1.99 83.495 -1.99 83.495 -3 84 C-3 60.57 -3 37.14 -3 13 C-3.66 13 -4.32 13 -5 13 C-5.33 31.15 -5.66 49.3 -6 68 C-6.33 68 -6.66 68 -7 68 C-7.495 64.535 -7.495 64.535 -8 61 C-8.19916016 62.37285156 -8.19916016 62.37285156 -8.40234375 63.7734375 C-8.57894531 64.96195312 -8.75554687 66.15046875 -8.9375 67.375 C-9.11152344 68.55835937 -9.28554687 69.74171875 -9.46484375 70.9609375 C-10 74 -10 74 -11 76 C-14.47914941 76.02887814 -17.95826831 76.04675687 -21.4375 76.0625 C-22.92733398 76.07506836 -22.92733398 76.07506836 -24.44726562 76.08789062 C-25.86362305 76.09272461 -25.86362305 76.09272461 -27.30859375 76.09765625 C-28.18314209 76.10289307 -29.05769043 76.10812988 -29.95874023 76.11352539 C-32 76 -32 76 -33 75 C-33.12307311 73.28225833 -33.17786558 71.55957261 -33.20532227 69.83764648 C-33.2352401 68.18604774 -33.2352401 68.18604774 -33.26576233 66.50108337 C-33.28247482 65.3031868 -33.29918732 64.10529022 -33.31640625 62.87109375 C-33.33718735 61.65172623 -33.35796844 60.4323587 -33.37937927 59.17604065 C-33.44500428 55.26325355 -33.50381972 51.35039683 -33.5625 47.4375 C-33.60567291 44.79231038 -33.64928678 42.14712791 -33.69335938 39.50195312 C-33.8006988 33.00137664 -33.90244067 26.50073021 -34 20 C-35.32 20 -36.64 20 -38 20 C-37.814375 20.86625 -37.62875 21.7325 -37.4375 22.625 C-36.99331449 26.05157392 -37.37324114 28.63117113 -38 32 C-37.505 32.495 -37.505 32.495 -37 33 C-36.90731001 34.35094982 -36.88252674 35.70667091 -36.88647461 37.06079102 C-36.88655014 37.92160782 -36.88662567 38.78242462 -36.88670349 39.66932678 C-36.89186478 40.60473801 -36.89702606 41.54014923 -36.90234375 42.50390625 C-36.9037587 43.45692123 -36.90517365 44.40993622 -36.90663147 45.39183044 C-36.91224848 48.44875165 -36.92480384 51.50560077 -36.9375 54.5625 C-36.94251281 56.62955624 -36.94707609 58.69661362 -36.95117188 60.76367188 C-36.96222344 65.84247588 -36.97949945 70.9212257 -37 76 C-40.47914941 76.02887814 -43.95826831 76.04675687 -47.4375 76.0625 C-48.92733398 76.07506836 -48.92733398 76.07506836 -50.44726562 76.08789062 C-51.39150391 76.09111328 -52.33574219 76.09433594 -53.30859375 76.09765625 C-54.18314209 76.10289307 -55.05769043 76.10812988 -55.95874023 76.11352539 C-58 76 -58 76 -59 75 C-59.08871273 71.97022196 -59.1151935 68.96332978 -59.09765625 65.93359375 C-59.0962413 65.02497086 -59.09482635 64.11634796 -59.09336853 63.18019104 C-59.08775193 60.26592779 -59.07519665 57.35174019 -59.0625 54.4375 C-59.05748714 52.46679798 -59.05292386 50.49609476 -59.04882812 48.52539062 C-59.03777711 43.68356441 -59.02050138 38.84179505 -59 34 C-60.32 34 -61.64 34 -63 34 C-63 34.66 -63 35.32 -63 36 C-63.66 36 -64.32 36 -65 36 C-65 36.66 -65 37.32 -65 38 C-66.32 37.67 -67.64 37.34 -69 37 C-68.0479279 35.99403703 -67.08812654 34.99538437 -66.125 34 C-65.59132813 33.443125 -65.05765625 32.88625 -64.5078125 32.3125 C-63 31 -63 31 -61 31 C-60.67 30.01 -60.34 29.02 -60 28 C-59.3709375 28.020625 -58.741875 28.04125 -58.09375 28.0625 C-53.96570953 27.96302915 -51.0522537 27.85357643 -47.765625 25.1875 C-46.43232884 23.74051191 -45.11672975 22.2769951 -43.8203125 20.796875 C-41.40228152 18.40997747 -39.30533517 18.31479383 -36 18 C-33.47512613 14.87396568 -33.44906241 10.89187423 -33 7 C-32.01 7.33 -31.02 7.66 -30 8 C-30 8.99 -30 9.98 -30 11 C-29.34 11 -28.68 11 -28 11 C-28.495 7.535 -28.495 7.535 -29 4 C-25.535 3.505 -25.535 3.505 -22 3 C-22 2.01 -22 1.02 -22 0 C-19.08365878 -0.19502282 -16.16720455 -0.38129328 -13.25 -0.5625 C-12.0125 -0.64661133 -12.0125 -0.64661133 -10.75 -0.73242188 C-9.95078125 -0.78076172 -9.1515625 -0.82910156 -8.328125 -0.87890625 C-7.5949707 -0.9260376 -6.86181641 -0.97316895 -6.10644531 -1.02172852 C-4 -1 -4 -1 0 0 Z " fill="#C7DEE6" transform="translate(180,52)"/>
<path d="M0 0 C0.33 0 0.66 0 1 0 C1.02312269 11.19573244 1.04091471 22.39145924 1.05181217 33.58721066 C1.05704116 38.78528115 1.0641391 43.98333536 1.07543945 49.18139648 C1.08626776 54.19342268 1.09227671 59.20543318 1.09487724 64.21747017 C1.09673159 66.13412282 1.1003524 68.05077457 1.10573006 69.96742058 C1.11293975 72.64228072 1.11399097 75.31707514 1.11352539 77.99194336 C1.11712067 78.7925116 1.12071594 79.59307983 1.12442017 80.41790771 C1.11405216 85.88594784 1.11405216 85.88594784 0 87 C-2.05385083 87.1152171 -4.11169397 87.15969356 -6.16870117 87.17700195 C-6.81269867 87.18357315 -7.45669617 87.19014435 -8.12020874 87.19691467 C-10.26112983 87.21669605 -12.40198047 87.22832371 -14.54296875 87.23828125 C-15.27374445 87.24235678 -16.00452015 87.2464323 -16.75744057 87.25063133 C-20.62873682 87.27151732 -24.49999742 87.28580539 -28.37133789 87.29516602 C-32.36510409 87.30620803 -36.35830964 87.3405743 -40.35187817 87.38033772 C-43.42575593 87.40653192 -46.49950106 87.41486052 -49.57348061 87.41844749 C-51.04504475 87.42330992 -52.5166031 87.43491424 -53.98805809 87.45348549 C-56.05392587 87.47792815 -58.11835698 87.47690327 -60.18432617 87.4699707 C-61.94518806 87.47877007 -61.94518806 87.47877007 -63.74162292 87.48774719 C-68.88064244 86.71848621 -71.95233796 84.15794226 -75.375 80.375 C-77 78 -77 78 -77 76 C-77.66 75.67 -78.32 75.34 -79 75 C-73.39 75 -67.78 75 -62 75 C-62 66.09 -62 57.18 -62 48 C-68.93 47.505 -68.93 47.505 -76 47 C-74.33049312 43.66098624 -73.50797594 42.40347695 -71 40 C-70.34 39.01 -69.68 38.02 -69 37 C-67.68 37 -66.36 37 -65 37 C-65 36.34 -65 35.68 -65 35 C-64.34 35 -63.68 35 -63 35 C-63 34.34 -63 33.68 -63 33 C-61.68 33 -60.36 33 -59 33 C-58.505 53.295 -58.505 53.295 -58 74 C-51.07 74.33 -44.14 74.66 -37 75 C-37.11971007 68.91261572 -37.24227602 62.82543328 -37.37231445 56.73828125 C-37.41569577 54.66637634 -37.45736846 52.59443493 -37.49731445 50.52246094 C-37.55493965 47.54871609 -37.61865625 44.57515552 -37.68359375 41.6015625 C-37.70030624 40.67131256 -37.71701874 39.74106262 -37.73423767 38.78262329 C-37.7641555 37.49151138 -37.7641555 37.49151138 -37.79467773 36.17431641 C-37.81799416 35.03514267 -37.81799416 35.03514267 -37.84178162 33.87295532 C-37.89127127 31.90884279 -37.89127127 31.90884279 -39 30 C-38.91255632 28.12137125 -38.75824458 26.24544819 -38.5625 24.375 C-38.46066406 23.37210938 -38.35882813 22.36921875 -38.25390625 21.3359375 C-38.17011719 20.56507812 -38.08632812 19.79421875 -38 19 C-36.68 19 -35.36 19 -34 19 C-33.07518386 25.371687 -32.79255449 31.6289903 -32.68359375 38.0625 C-32.66281265 39.09439453 -32.64203156 40.12628906 -32.62062073 41.18945312 C-32.55565895 44.45957296 -32.49649035 47.72976755 -32.4375 51 C-32.39426393 53.22787206 -32.35064808 55.45573679 -32.30664062 57.68359375 C-32.19932397 63.12232062 -32.09985461 68.56111062 -32 74 C-25.07 74.33 -18.14 74.66 -11 75 C-10.17400588 68.68470237 -10.17400588 68.68470237 -9.79467773 62.41992188 C-9.77473251 61.61969604 -9.75478729 60.81947021 -9.73423767 59.99499512 C-9.71752518 59.16133423 -9.70081268 58.32767334 -9.68359375 57.46875 C-9.6524221 56.15396667 -9.6524221 56.15396667 -9.62062073 54.81262207 C-9.55579117 52.04181958 -9.49655342 49.27093099 -9.4375 46.5 C-9.39425127 44.60936648 -9.35063507 42.71874132 -9.30664062 40.828125 C-9.20017915 36.21883584 -9.09872881 31.60946101 -9 27 C-8.67 27 -8.34 27 -8 27 C-7.67 37.89 -7.34 48.78 -7 60 C-6.93941406 56.70257813 -6.87882812 53.40515625 -6.81640625 50.0078125 C-6.75464737 46.82403193 -6.69124703 43.640288 -6.62768555 40.45654297 C-6.58429922 38.23912803 -6.54262692 36.02167888 -6.50268555 33.80419922 C-6.44507246 30.62196528 -6.38135236 27.43990416 -6.31640625 24.2578125 C-6.29969376 23.26194122 -6.28298126 22.26606995 -6.26576233 21.24002075 C-6.24581711 20.31921722 -6.22587189 19.3984137 -6.20532227 18.44970703 C-6.18977798 17.6369632 -6.1742337 16.82421936 -6.15821838 15.98684692 C-6 14 -6 14 -5 12 C-4.34 12 -3.68 12 -3 12 C-2.67 35.1 -2.34 58.2 -2 82 C-1.71124678 59.12933003 -1.71124678 59.12933003 -1.43188477 36.25854492 C-1.3729248 31.8013916 -1.3729248 31.8013916 -1.34410095 29.70454407 C-1.32507559 28.26254732 -1.30770961 26.82052801 -1.29173279 25.37849426 C-1.19625394 16.87914646 -0.96330375 8.45550894 0 0 Z " fill="#CAE0E9" transform="translate(180,53)"/>
<path d="M0 0 C0.71985077 0.00088623 1.43970154 0.00177246 2.18136597 0.00268555 C13.08264365 0.01843162 23.94155301 0.26877914 34.8125 1.125 C34.8125 2.115 34.8125 3.105 34.8125 4.125 C32.5025 4.455 30.1925 4.785 27.8125 5.125 C28.3075 8.59 28.3075 8.59 28.8125 12.125 C27.4925 11.795 26.1725 11.465 24.8125 11.125 C23.8225 13.765 22.8325 16.405 21.8125 19.125 C20.67492052 14.57468209 21.3841221 12.49415594 22.8125 8.125 C19.5125 9.115 16.2125 10.105 12.8125 11.125 C12.8125 11.785 12.8125 12.445 12.8125 13.125 C12.8125 16.125 12.8125 16.125 11.31640625 17.66015625 C10.67574219 18.16417969 10.03507812 18.66820313 9.375 19.1875 C6.65374807 21.2921333 6.65374807 21.2921333 4.8125 24.125 C3.1473616 24.19933654 1.47916667 24.20833333 -0.1875 24.1875 C-6.52975597 24.62404489 -9.14904958 27.21981474 -13.2578125 31.84765625 C-13.89460938 32.59917969 -14.53140625 33.35070312 -15.1875 34.125 C-16.095 35.011875 -17.0025 35.89875 -17.9375 36.8125 C-19.69680769 38.62067734 -21.20292373 40.39792066 -22.75 42.375 C-25.22044703 45.16217101 -25.76402882 45.51702626 -29.1875 46.125 C-30.27043092 38.23507474 -30.33660999 30.4562959 -30.3125 22.5 C-30.31636719 21.21609375 -30.32023437 19.9321875 -30.32421875 18.609375 C-30.32292969 17.36414063 -30.32164063 16.11890625 -30.3203125 14.8359375 C-30.31918457 13.71493652 -30.31805664 12.59393555 -30.31689453 11.43896484 C-30.18043374 7.94402371 -29.73846731 4.57688952 -29.1875 1.125 C-19.45021694 0.20739406 -9.77232006 -0.03477345 0 0 Z " fill="#C9DCE6" transform="translate(123.1875,50.875)"/>
<path d="M0 0 C0.7425 0.0825 1.485 0.165 2.25 0.25 C2.25 0.91 2.25 1.57 2.25 2.25 C3.24 2.25 4.23 2.25 5.25 2.25 C5.25 2.91 5.25 3.57 5.25 4.25 C6.24 4.58 7.23 4.91 8.25 5.25 C9.9037128 8.55742561 9.78363009 10.5738816 9.25 14.25 C7.28265939 16.44109394 5.15085824 18.34553554 2.96484375 20.31640625 C0.86294719 22.25568165 0.86294719 22.25568165 1.25 25.75 C1.745 26.9875 1.745 26.9875 2.25 28.25 C1.59 27.92 0.93 27.59 0.25 27.25 C-0.183125 28.384375 -0.61625 29.51875 -1.0625 30.6875 C-1.619375 31.863125 -2.17625 33.03875 -2.75 34.25 C-3.74 34.58 -4.73 34.91 -5.75 35.25 C-6.44709521 36.56767997 -7.10946677 37.90391701 -7.75 39.25 C-13.00505379 45.45491093 -19.09957868 51.43413661 -27.3125 52.875 C-33.01855849 51.83753482 -36.37405799 49.14192026 -39.75 44.5 C-41.30148341 39.45767891 -41.20083007 35.07740506 -38.7578125 30.31640625 C-35.55507987 25.75867135 -31.51951922 21.84044687 -27.625 17.875 C-26.85289185 17.08838989 -26.85289185 17.08838989 -26.06518555 16.28588867 C-22.45605586 12.70942607 -19.89422529 10.47810907 -14.8125 9.9375 C-10.02341958 8.86240031 -7.86157172 5.5352548 -4.75 1.9375 C-2.75 0.25 -2.75 0.25 0 0 Z " fill="#9FABAC" transform="translate(80.75,115.75)"/>
<path d="M0 0 C6.93 0 13.86 0 21 0 C21 20.13 21 40.26 21 61 C14.07 61 7.14 61 0 61 C0 40.87 0 20.74 0 0 Z " fill="#2EAE67" transform="translate(148,67)"/>
<path d="M0 0 C6.6 0 13.2 0 20 0 C21 1 21 1 21.12025452 2.75270081 C21.1169236 3.89520546 21.1169236 3.89520546 21.11352539 5.06079102 C21.11344986 5.92160782 21.11337433 6.78242462 21.11329651 7.66932678 C21.10813522 8.60473801 21.10297394 9.54014923 21.09765625 10.50390625 C21.0962413 11.45692123 21.09482635 12.40993622 21.09336853 13.39183044 C21.08775152 16.44875165 21.07519616 19.50560077 21.0625 22.5625 C21.05748719 24.62955624 21.05292391 26.69661362 21.04882812 28.76367188 C21.03862558 33.84249833 21.01905356 38.92116806 21 44 C14.07 44 7.14 44 0 44 C0 29.48 0 14.96 0 0 Z " fill="#5164A1" transform="translate(122,84)"/>
<path d="M0 0 C-0.30759178 1.97993541 -0.6212068 3.95893599 -0.9375 5.9375 C-1.11152344 7.03964844 -1.28554687 8.14179687 -1.46484375 9.27734375 C-2 12 -2 12 -3 13 C-3.28868846 17.84690425 -3.24469444 22.70777932 -3.25 27.5625 C-3.25200912 28.62502487 -3.25200912 28.62502487 -3.25405884 29.70901489 C-3.24847494 43.24111609 -2.11543061 55.33321944 3 68 C3 69.32 3 70.64 3 72 C3.66 72 4.32 72 5 72 C3.71700242 74.86207152 2.469364 77.0245088 0 79 C-0.99 79 -1.98 79 -3 79 C-13.6411755 55.70305752 -20.36762635 30.60342264 -12.0703125 5.28125 C-11 3 -11 3 -9 2 C-9 2.66 -9 3.32 -9 4 C-8.01 4 -7.02 4 -6 4 C-6 3.34 -6 2.68 -6 2 C-2.25 0 -2.25 0 0 0 Z " fill="#3D5085" transform="translate(72,44)"/>
<path d="M0 0 C0.7425 0.0825 1.485 0.165 2.25 0.25 C2.25 0.91 2.25 1.57 2.25 2.25 C3.24 2.25 4.23 2.25 5.25 2.25 C5.25 2.91 5.25 3.57 5.25 4.25 C6.24 4.58 7.23 4.91 8.25 5.25 C9.93596436 8.62192873 9.84742444 10.48622601 9.25 14.25 C6.53499909 17.57772484 3.4781847 20.42533839 0.25 23.25 C-1.75 20.25 -1.75 20.25 -1.75 18.25 C-2.41 18.25 -3.07 18.25 -3.75 18.25 C-3.75 17.59 -3.75 16.93 -3.75 16.25 C-7.89670039 18.62629089 -7.89670039 18.62629089 -10.75 22.25 C-11.41 22.25 -12.07 22.25 -12.75 22.25 C-12.9975 22.889375 -13.245 23.52875 -13.5 24.1875 C-14.75 26.25 -14.75 26.25 -16.875 27 C-17.803125 27.12375 -17.803125 27.12375 -18.75 27.25 C-19.08 28.9 -19.41 30.55 -19.75 32.25 C-20.26949219 31.90066406 -20.78898437 31.55132812 -21.32421875 31.19140625 C-26.62724314 27.70944496 -26.62724314 27.70944496 -32.75 26.25 C-29.3177074 19.89695841 -24.81916757 12.93348739 -17.6328125 10.546875 C-16.94960938 10.40765625 -16.26640625 10.2684375 -15.5625 10.125 C-11.08441135 9.09724195 -9.69376107 7.68438791 -6.75 4.25 C-3.33666667 0.30333333 -3.33666667 0.30333333 0 0 Z " fill="#98A5A7" transform="translate(80.75,115.75)"/>
<path d="M0 0 C3.17865484 2.14786933 6.08702154 4.50910617 9 7 C10.010625 7.7425 11.02125 8.485 12.0625 9.25 C13.0215625 10.11625 13.0215625 10.11625 14 11 C14 11.99 14 12.98 14 14 C9.54217496 14.17600241 5.08525663 14.28142818 0.625 14.375 C-0.62667969 14.42527344 -1.87835938 14.47554687 -3.16796875 14.52734375 C-12.00736871 14.66618249 -16.84009219 12.99351607 -24 8 C-27.00959291 6.74413785 -27.00959291 6.74413785 -29.625 6.125 C-30.88183594 5.78855469 -30.88183594 5.78855469 -32.1640625 5.4453125 C-32.76992187 5.29835938 -33.37578125 5.15140625 -34 5 C-31.82446914 0.27316476 -29.00934739 -2.08666028 -24.25 -4.25 C-15.10448441 -6.3605036 -8.24590032 -4.39195756 0 0 Z " fill="#3C5089" transform="translate(120,35)"/>
<path d="M0 0 C3.71228389 3.59979044 7.10516412 7.38347519 10.44921875 11.328125 C11.91350467 13.10326363 11.91350467 13.10326363 14 14 C14 14.66 14 15.32 14 16 C14.56332031 16.26941406 15.12664062 16.53882813 15.70703125 16.81640625 C18.12885818 18.06651453 20.38486906 19.48027945 22.6875 20.9375 C29.88922492 25.27334026 36.66904217 27.2426402 45 28 C45 28.66 45 29.32 45 30 C33.51800586 35.99552403 25.18731934 39.69283498 12.375 35.9375 C11.59125 35.628125 10.8075 35.31875 10 35 C10.99 34.34 11.98 33.68 13 33 C11.7625 32.319375 11.7625 32.319375 10.5 31.625 C9.675 31.08875 8.85 30.5525 8 30 C8 29.34 8 28.68 8 28 C6.68 27.34 5.36 26.68 4 26 C4.33 25.29875 4.66 24.5975 5 23.875 C6.16426031 21.03507642 6.16426031 21.03507642 6 18 C6 14.82307087 6.65940085 12.84877319 8 10 C6.35 9.67 4.7 9.34 3 9 C3 7.68 3 6.36 3 5 C2.01 4.67 1.02 4.34 0 4 C0 2.68 0 1.36 0 0 Z " fill="#5568A1" transform="translate(98,130)"/>
<path d="M0 0 C6.6 0 13.2 0 20 0 C20 8.58 20 17.16 20 26 C16.41125 26.1546875 16.41125 26.1546875 12.75 26.3125 C12.00331055 26.35802002 11.25662109 26.40354004 10.48730469 26.45043945 C8.671875 26.48828125 8.671875 26.48828125 5 26 C1.94197511 23.05541797 0.13341795 20.34213067 -0.11352539 16.00708008 C-0.10828857 15.26868896 -0.10305176 14.53029785 -0.09765625 13.76953125 C-0.09515869 13.04612549 -0.09266113 12.32271973 -0.09008789 11.57739258 C-0.08098389 10.66497803 -0.07187988 9.75256348 -0.0625 8.8125 C-0.041875 5.904375 -0.02125 2.99625 0 0 Z " fill="#FBA805" transform="translate(96,102)"/>
<path d="M0 0 C1.5 1.375 1.5 1.375 3 3 C3 3.66 3 4.32 3 5 C3.66 5.33 4.32 5.66 5 6 C5 7.32 5 8.64 5 10 C7.475 10.495 7.475 10.495 10 11 C9.67 12.32 9.34 13.64 9 15 C9.66 15.33 10.32 15.66 11 16 C10.01 16 9.02 16 8 16 C8.33 18.64 8.66 21.28 9 24 C8.34 24.33 7.68 24.66 7 25 C7.33 25.99 7.66 26.98 8 28 C8.66 28.33 9.32 28.66 10 29 C10 29.66 10 30.32 10 31 C11.2065625 31.433125 11.2065625 31.433125 12.4375 31.875 C15 33 15 33 16 35 C9.50088752 36.02617565 5.1068021 32.54796903 0 29 C-5.82824536 24.63740377 -12.37120499 18.96563956 -15 12 C-14.59826175 7.95171456 -12.45013451 5.90120816 -9.62109375 3.1875 C-7.36947488 1.53812136 -5.7161493 1.70636224 -3 2 C-2.01 1.34 -1.02 0.68 0 0 Z " fill="#51649F" transform="translate(96,129)"/>
<path d="M0 0 C-0.55312735 4.02992782 -1.1558062 8.02022924 -2 12 C-2.825 12 -3.65 12 -4.5 12 C-8.40065162 13.11447189 -9.15219968 14.0431541 -11.75 17 C-14.85510838 20.36734402 -16.59311273 21.48952492 -21.1875 21.6875 C-22.03054687 21.708125 -22.87359375 21.72875 -23.7421875 21.75 C-26.29138392 21.83291559 -26.29138392 21.83291559 -28.8125 24.1875 C-29.534375 25.115625 -30.25625 26.04375 -31 27 C-32.63332258 29.03448953 -34.29748116 31.02139703 -36 33 C-36.66 33 -37.32 33 -38 33 C-38.33 33.99 -38.66 34.98 -39 36 C-40.0625 37.6875 -40.0625 37.6875 -42 39 C-44.71836308 39.25786843 -47.25839624 39.13483297 -50 39 C-50 37 -50 37 -47.8125 34.625 C-45 32 -45 32 -42.625 30.1875 C-40.28219813 28.2351651 -38.42767036 26.29569758 -36.4375 24 C-35.83292969 23.3090625 -35.22835937 22.618125 -34.60546875 21.90625 C-32.91056593 19.95127058 -32.91056593 19.95127058 -31.25 17.5 C-27.31001835 14.87334556 -22.59044502 15.71507583 -18 16 C-17.566875 15.07960938 -17.566875 15.07960938 -17.125 14.140625 C-15.77472301 11.57134794 -14.17752696 9.90533609 -12 8 C-11.34 8 -10.68 8 -10 8 C-10.66 6.35 -11.32 4.7 -12 3 C-8.2080182 0.81231819 -4.37268114 0 0 0 Z " fill="#D94F43" transform="translate(146,59)"/>
<path d="M0 0 C0 0.66 0 1.32 0 2 C0.66 2 1.32 2 2 2 C2.69710731 3.28650706 3.38242876 4.57940665 4.0625 5.875 C4.63677734 6.95394531 4.63677734 6.95394531 5.22265625 8.0546875 C5.60744141 9.01761719 5.60744141 9.01761719 6 10 C5.67 10.66 5.34 11.32 5 12 C4.67 11.67 4.34 11.34 4 11 C3.3503125 12.7015625 3.3503125 12.7015625 2.6875 14.4375 C2.130625 15.613125 1.57375 16.78875 1 18 C0.01 18.33 -0.98 18.66 -2 19 C-2.69800304 20.31719929 -3.36059748 21.65337955 -4 23 C-5.65625 24.921875 -5.65625 24.921875 -7.5 26.75 C-8.41265625 27.67039063 -8.41265625 27.67039063 -9.34375 28.609375 C-11 30 -11 30 -13 30 C-13.07347656 28.98679688 -13.07347656 28.98679688 -13.1484375 27.953125 C-13.22320312 27.06109375 -13.29796875 26.1690625 -13.375 25.25 C-13.44460937 24.36828125 -13.51421875 23.4865625 -13.5859375 22.578125 C-14.00093769 19.99416153 -14.80038557 18.29640476 -16 16 C-15.9375 13.4375 -15.9375 13.4375 -15 11 C-12.5 9.3125 -12.5 9.3125 -10 8 C-9.67 7.34 -9.34 6.68 -9 6 C-8.34 6 -7.68 6 -7 6 C-6.731875 5.195625 -6.46375 4.39125 -6.1875 3.5625 C-5.795625 2.716875 -5.40375 1.87125 -5 1 C-2 0 -2 0 0 0 Z " fill="#8A9698" transform="translate(77,132)"/>
<path d="M0 0 C1.04450317 0.00326294 1.04450317 0.00326294 2.11010742 0.0065918 C4.23278268 0.00974873 6.35405999 -0.01369198 8.4765625 -0.0390625 C9.82486803 -0.04133583 11.17317731 -0.04203883 12.52148438 -0.04101562 C14.36407837 -0.04548706 14.36407837 -0.04548706 16.24389648 -0.05004883 C19.30664062 0.32226562 19.30664062 0.32226562 21.24243164 1.6809082 C22.30664062 3.32226562 22.30664062 3.32226562 22.11914062 5.94726562 C21.30664062 8.32226562 21.30664062 8.32226562 19.30664062 9.32226562 C17.07917724 9.41999374 14.84874592 9.45303956 12.61914062 9.45507812 C11.63167847 9.45651321 11.63167847 9.45651321 10.62426758 9.45797729 C9.23225814 9.45865787 7.84024553 9.45681209 6.44824219 9.45263672 C4.3150318 9.44728667 2.18203195 9.45258575 0.04882812 9.45898438 C-1.30273484 9.45832357 -2.65429768 9.45704236 -4.00585938 9.45507812 C-5.85630859 9.45338623 -5.85630859 9.45338623 -7.74414062 9.45166016 C-10.69335937 9.32226562 -10.69335937 9.32226562 -12.69335938 8.32226562 C-12.81835938 5.44726562 -12.81835938 5.44726562 -12.69335938 2.32226562 C-9.30670722 -1.06438653 -4.57181389 0.01892366 0 0 Z " fill="#F4CB73" transform="translate(34.693359375,93.677734375)"/>
<path d="M0 0 C1.65225586 0.00290039 1.65225586 0.00290039 3.33789062 0.00585938 C5.05588867 0.02422852 5.05588867 0.02422852 6.80859375 0.04296875 C8.53239258 0.04393555 8.53239258 0.04393555 10.29101562 0.04492188 C18.82442801 0.0899135 18.82442801 0.0899135 22.24609375 1.23046875 C22.87109375 4.10546875 22.87109375 4.10546875 23.24609375 7.23046875 C21.24609375 9.23046875 21.24609375 9.23046875 18.28100586 9.47338867 C17.0410083 9.46927979 15.80101074 9.4651709 14.5234375 9.4609375 C13.86275772 9.46047928 13.20207794 9.46002106 12.52137756 9.45954895 C11.12515466 9.45652796 9.72893508 9.44864617 8.33276367 9.4362793 C6.18851877 9.41801071 4.04470526 9.41576969 1.90039062 9.41601562 C-8.60647413 9.37790087 -8.60647413 9.37790087 -9.75390625 8.23046875 C-9.79471408 6.23088511 -9.79644981 4.23001621 -9.75390625 2.23046875 C-6.41089907 0.22187819 -3.87121158 -0.01579075 0 0 Z " fill="#2DC76E" transform="translate(31.75390625,50.76953125)"/>
<path d="M0 0 C3.17865484 2.14786933 6.08702154 4.50910617 9 7 C10.010625 7.7425 11.02125 8.485 12.0625 9.25 C13.0215625 10.11625 13.0215625 10.11625 14 11 C14 11.99 14 12.98 14 14 C4.76 14 -4.48 14 -14 14 C-14 13.67 -14 13.34 -14 13 C-8.72 12.67 -3.44 12.34 2 12 C2 11.34 2 10.68 2 10 C0.68 9.67 -0.64 9.34 -2 9 C-2 8.01 -2 7.02 -2 6 C-2.66 6 -3.32 6 -4 6 C-4 5.34 -4 4.68 -4 4 C-5.32 4 -6.64 4 -8 4 C-8 3.34 -8 2.68 -8 2 C-8.969375 1.855625 -9.93875 1.71125 -10.9375 1.5625 C-14 1 -14 1 -15 0 C-16.68183948 -0.23287008 -18.3712416 -0.41264166 -20.0625 -0.5625 C-20.98160156 -0.64628906 -21.90070313 -0.73007812 -22.84765625 -0.81640625 C-23.91306641 -0.90728516 -23.91306641 -0.90728516 -25 -1 C-25 -0.34 -25 0.32 -25 1 C-25.66 0.67 -26.32 0.34 -27 0 C-27 -0.99 -27 -1.98 -27 -3 C-17.10851887 -7.05804354 -9.19912679 -4.89966806 0 0 Z " fill="#6878A2" transform="translate(120,35)"/>
<path d="M0 0 C2.125 0.9375 2.125 0.9375 4 2 C3.34 2 2.68 2 2 2 C2.20625 2.86625 2.4125 3.7325 2.625 4.625 C3 8 3 8 1 14 C-5.27 14 -11.54 14 -18 14 C-18 28.19 -18 42.38 -18 57 C-18.33 57 -18.66 57 -19 57 C-19 43.47 -19 29.94 -19 16 C-20.32 16 -21.64 16 -23 16 C-23 16.66 -23 17.32 -23 18 C-23.66 18 -24.32 18 -25 18 C-25 18.66 -25 19.32 -25 20 C-26.32 19.67 -27.64 19.34 -29 19 C-28.0479279 17.99403703 -27.08812654 16.99538437 -26.125 16 C-25.32449219 15.1646875 -25.32449219 15.1646875 -24.5078125 14.3125 C-23 13 -23 13 -21 13 C-20.67 12.01 -20.34 11.02 -20 10 C-19.3709375 10.020625 -18.741875 10.04125 -18.09375 10.0625 C-12.44975069 9.92650002 -9.49774647 9.11532724 -5.5 5 C-4.8709375 4.278125 -4.241875 3.55625 -3.59375 2.8125 C-2 1 -2 1 0 0 Z " fill="#C5DCE9" transform="translate(140,70)"/>
<path d="M0 0 C0.97646484 0.04833984 1.95292969 0.09667969 2.95898438 0.14648438 C4.47008789 0.2305957 4.47008789 0.2305957 6.01171875 0.31640625 C7.55182617 0.3947168 7.55182617 0.3947168 9.12304688 0.47460938 C11.64877962 0.60383291 14.17407136 0.73877916 16.69921875 0.87890625 C17.32421875 3.75390625 17.32421875 3.75390625 17.69921875 6.87890625 C15.05222259 9.52590241 13.79527466 9.13640392 10.10546875 9.14453125 C8.99300781 9.14710937 7.88054688 9.1496875 6.734375 9.15234375 C5.56777344 9.14460938 4.40117188 9.136875 3.19921875 9.12890625 C2.03261719 9.13664062 0.86601563 9.144375 -0.3359375 9.15234375 C-1.44839844 9.14976563 -2.56085937 9.1471875 -3.70703125 9.14453125 C-4.73119141 9.14227539 -5.75535156 9.14001953 -6.81054688 9.13769531 C-9.30078125 8.87890625 -9.30078125 8.87890625 -11.30078125 6.87890625 C-10.92578125 3.75390625 -10.92578125 3.75390625 -10.30078125 0.87890625 C-6.75064296 0.04802282 -3.63668758 -0.19140461 0 0 Z " fill="#5767A2" transform="translate(46.30078125,115.12109375)"/>
<path d="M0 0 C1.28125 1.7421875 1.28125 1.7421875 2.5 3.875 C3.76389089 6.07060532 4.84795631 7.85010787 6.65625 9.6328125 C8 11 8 11 8 13 C8.66 13 9.32 13 10 13 C10.33 13.99 10.66 14.98 11 16 C11.66 16.33 12.32 16.66 13 17 C13 17.66 13 18.32 13 19 C14.65 19.66 16.3 20.32 18 21 C18 21.66 18 22.32 18 23 C19.2065625 23.433125 19.2065625 23.433125 20.4375 23.875 C23 25 23 25 24 27 C17.50088752 28.02617565 13.1068021 24.54796903 8 21 C2.0246772 16.5273124 -4.05677941 10.99187615 -7 4 C-7 3.01 -7 2.02 -7 1 C-3.375 -1.125 -3.375 -1.125 0 0 Z " fill="#495B8E" transform="translate(88,137)"/>
<path d="M0 0 C2.9375 0.5625 2.9375 0.5625 5.3125 2.125 C6.9375 4.5625 6.9375 4.5625 7.75 7.75 C6.49353025 13.64574266 2.36139903 16.69158835 -2.0625 20.5625 C-4.0625 17.5625 -4.0625 17.5625 -4.0625 15.5625 C-4.7225 15.5625 -5.3825 15.5625 -6.0625 15.5625 C-7.44482443 13.93623596 -8.78187515 12.2699998 -10.0625 10.5625 C-8.38066682 5.21121261 -5.77076069 1.05993564 0 0 Z " fill="#F5F8F8" transform="translate(83.0625,118.4375)"/>
<path d="M0 0 C0.66 0.33 1.32 0.66 2 1 C1.61328125 1.60585938 1.2265625 2.21171875 0.828125 2.8359375 C-2.81412729 8.69599687 -5.6539024 14.51373015 -8 21 C-8.66 21 -9.32 21 -10 21 C-10.33 20.34 -10.66 19.68 -11 19 C-11.99 19.99 -12.98 20.98 -14 22 C-13.47731534 19.23723823 -12.89130413 16.6739124 -12 14 C-12.99 14.66 -13.98 15.32 -15 16 C-15.99 16 -16.98 16 -18 16 C-18 16.66 -18 17.32 -18 18 C-18.99 18 -19.98 18 -21 18 C-20.48776155 13.51791358 -19.09086231 11.26257688 -16 8 C-13.39815449 6.30731406 -10.67318634 4.96152192 -7.875 3.625 C-7.14667969 3.25761719 -6.41835937 2.89023437 -5.66796875 2.51171875 C-3.81213049 1.60266674 -1.90842584 0.79273073 0 0 Z " fill="#4C5B85" transform="translate(84,30)"/>
<path d="M0 0 C6.6 0 13.2 0 20 0 C21 1 21 1 21.12025452 2.75270081 C21.1169236 3.89520546 21.1169236 3.89520546 21.11352539 5.06079102 C21.11344986 5.92160782 21.11337433 6.78242462 21.11329651 7.66932678 C21.10813522 8.60473801 21.10297394 9.54014923 21.09765625 10.50390625 C21.0962413 11.45692123 21.09482635 12.40993622 21.09336853 13.39183044 C21.08775152 16.44875165 21.07519616 19.50560077 21.0625 22.5625 C21.05748719 24.62955624 21.05292391 26.69661362 21.04882812 28.76367188 C21.03862558 33.84249833 21.01905356 38.92116806 21 44 C14.07 44 7.14 44 0 44 C0 29.48 0 14.96 0 0 Z M1 1 C1 8.26 1 15.52 1 23 C1.33 23 1.66 23 2 23 C2.33 27.95 2.66 32.9 3 38 C2.34 38 1.68 38 1 38 C1 38.66 1 39.32 1 40 C2.65 40.33 4.3 40.66 6 41 C4.68 41.66 3.36 42.32 2 43 C7.94 43 13.88 43 20 43 C20 29.14 20 15.28 20 1 C13.73 1 7.46 1 1 1 Z M4 36 C6 37 6 37 6 37 Z " fill="#7286B3" transform="translate(122,84)"/>
<path d="M0 0 C0.66 0.66 1.32 1.32 2 2 C-1.39728461 6.15612825 -4.72999141 9.70599337 -9 13 C-9.33 13.66 -9.66 14.32 -10 15 C-13.98866127 15.99716532 -17.0323069 16.0502717 -21 15 C-16.27929029 6.26214788 -10.7770182 -1.67229593 0 0 Z " fill="#808D8E" transform="translate(69,127)"/>
<path d="M0 0 C6.6 0 13.2 0 20 0 C20 8.58 20 17.16 20 26 C16.41125 26.1546875 16.41125 26.1546875 12.75 26.3125 C12.00331055 26.35802002 11.25662109 26.40354004 10.48730469 26.45043945 C8.671875 26.48828125 8.671875 26.48828125 5 26 C1.94197511 23.05541797 0.13341795 20.34213067 -0.11352539 16.00708008 C-0.10828857 15.26868896 -0.10305176 14.53029785 -0.09765625 13.76953125 C-0.09515869 13.04612549 -0.09266113 12.32271973 -0.09008789 11.57739258 C-0.08098389 10.66497803 -0.07187988 9.75256348 -0.0625 8.8125 C-0.041875 5.904375 -0.02125 2.99625 0 0 Z M1 1 C1.28875 2.299375 1.5775 3.59875 1.875 4.9375 C2.91666667 9.625 3.95833333 14.3125 5 19 C5.66 19 6.32 19 7 19 C7.33 20.65 7.66 22.3 8 24 C11.63 24 15.26 24 19 24 C19 16.41 19 8.82 19 1 C13.06 1 7.12 1 1 1 Z " fill="#E09A36" transform="translate(96,102)"/>
<path d="M0 0 C0.33 0.66 0.66 1.32 1 2 C1.66 2 2.32 2 3 2 C3 3.98 3 5.96 3 8 C4.7634375 7.9690625 4.7634375 7.9690625 6.5625 7.9375 C10.47413467 7.93052739 14.14497944 8.35749657 18 9 C18 9.33 18 9.66 18 10 C11.07 10 4.14 10 -3 10 C-3 29.8 -3 49.6 -3 70 C-3.33 70 -3.66 70 -4 70 C-4.33 51.85 -4.66 33.7 -5 15 C-5.66 15 -6.32 15 -7 15 C-6.690625 14.154375 -6.38125 13.30875 -6.0625 12.4375 C-4.98461179 8.9502146 -4.43418696 5.61822465 -4 2 C-3.01 2.33 -2.02 2.66 -1 3 C-1 3.99 -1 4.98 -1 6 C-0.34 6 0.32 6 1 6 C0.67 4.02 0.34 2.04 0 0 Z " fill="#AFDDD5" transform="translate(151,57)"/>
<path d="M0 0 C9.9 0 19.8 0 30 0 C30 1.65 30 3.3 30 5 C20.43 5 10.86 5 1 5 C0.67 3.35 0.34 1.7 0 0 Z " fill="#F7A80C" transform="translate(24,96)"/>
<path d="M0 0 C1.8871875 0.00773437 1.8871875 0.00773437 3.8125 0.015625 C5.070625 0.01046875 6.32875 0.0053125 7.625 0 C10.8125 0.265625 10.8125 0.265625 12.8125 2.265625 C13 4.828125 13 4.828125 12.8125 7.265625 C10.88172523 9.19639977 7.51931469 8.74985329 4.9375 8.953125 C3.68195312 9.06011719 2.42640625 9.16710937 1.1328125 9.27734375 C-2.1875 9.265625 -2.1875 9.265625 -5.1875 7.265625 C-5.5 4.765625 -5.5 4.765625 -5.1875 2.265625 C-3.1875 0.265625 -3.1875 0.265625 0 0 Z " fill="#DE5E55" transform="translate(40.1875,72.734375)"/>
<path d="M0 0 C0.66 0.33 1.32 0.66 2 1 C0.35 2.98 -1.3 4.96 -3 7 C-2.22914062 7.06058594 -1.45828125 7.12117188 -0.6640625 7.18359375 C0.84027344 7.30927734 0.84027344 7.30927734 2.375 7.4375 C3.87160156 7.55931641 3.87160156 7.55931641 5.3984375 7.68359375 C8 8 8 8 10 9 C10 17.91 10 26.82 10 36 C9.34 36 8.68 36 8 36 C8 27.42 8 18.84 8 10 C1.4 10 -5.2 10 -12 10 C-12 8.68 -12 7.36 -12 6 C-9.36 6 -6.72 6 -4 6 C-3.67 5.01 -3.34 4.02 -3 3 C-1.4375 1.3125 -1.4375 1.3125 0 0 Z " fill="#DBCDB2" transform="translate(108,92)"/>
<path d="M0 0 C0 0.99 0 1.98 0 3 C-0.33 3.33 -0.66 3.66 -1 4 C0.216875 4.4125 1.43375 4.825 2.6875 5.25 C6.98568956 6.87037943 10.60603008 8.7447558 13.09375 12.76953125 C14.19211763 15.47284124 14.41742522 17.84395311 14.625 20.75 C14.69976562 21.73484375 14.77453125 22.7196875 14.8515625 23.734375 C14.90054688 24.48203125 14.94953125 25.2296875 15 26 C13.68 26.33 12.36 26.66 11 27 C11.04125 25.783125 11.0825 24.56625 11.125 23.3125 C11.13128448 19.75548471 10.57052486 17.23343354 9 14 C8.67 13.01 8.34 12.02 8 11 C3.60470084 9.01165038 -0.22037853 8.80881514 -5 9 C-6.49140021 12.62197194 -7.7874262 16.27566618 -9 20 C-9.33 20 -9.66 20 -10 20 C-9.96159004 11.70344798 -7.01057639 7.08450406 -1.3046875 1.2734375 C-0.87414063 0.85320312 -0.44359375 0.43296875 0 0 Z " fill="#DDE2E3" transform="translate(50,137)"/>
<path d="M0 0 C0 3.10551666 -0.5393715 4.35261084 -2 7 C-1.34 7 -0.68 7 0 7 C-1.20381448 9.49361571 -2.45428722 11.68143083 -4 14 C-4.66 14 -5.32 14 -6 14 C-6.33 14.99 -6.66 15.98 -7 17 C-8.0625 18.6875 -8.0625 18.6875 -10 20 C-12.71836308 20.25786843 -15.25839624 20.13483297 -18 20 C-18 18 -18 18 -15.8125 15.625 C-13 13 -13 13 -10.625 11.1875 C-6.98539545 8.15449621 -4.06383775 4.59918575 -1 1 C-0.67 0.67 -0.34 0.34 0 0 Z " fill="#D6605A" transform="translate(114,78)"/>
<path d="M0 0 C-0.55312735 4.02992782 -1.1558062 8.02022924 -2 12 C-8.625 13.125 -8.625 13.125 -12 12 C-14.14255793 12.38932856 -14.14255793 12.38932856 -16 13 C-14.71937515 11.2925002 -13.38232443 9.62626404 -12 8 C-11.34 8 -10.68 8 -10 8 C-10.66 6.35 -11.32 4.7 -12 3 C-8.2080182 0.81231819 -4.37268114 0 0 0 Z " fill="#E14A3C" transform="translate(146,59)"/>
<path d="M0 0 C4.95 0 9.9 0 15 0 C11.12751217 5.67964882 6.73951328 8.41100906 0 10 C-1.32 9.67 -2.64 9.34 -4 9 C-2.68 6.03 -1.36 3.06 0 0 Z " fill="#69759A" transform="translate(141,143)"/>
<path d="M0 0 C2.35546875 2.171875 2.35546875 2.171875 4 4 C2.02 4 0.04 4 -2 4 C-2 2.68 -2 1.36 -2 0 C-3.65 0 -5.3 0 -7 0 C-7.33 0.66 -7.66 1.32 -8 2 C-13.875 1.125 -13.875 1.125 -15 0 C-16.68183948 -0.23287008 -18.3712416 -0.41264166 -20.0625 -0.5625 C-20.98160156 -0.64628906 -21.90070313 -0.73007812 -22.84765625 -0.81640625 C-23.91306641 -0.90728516 -23.91306641 -0.90728516 -25 -1 C-25 -0.34 -25 0.32 -25 1 C-25.66 0.67 -26.32 0.34 -27 0 C-27 -0.99 -27 -1.98 -27 -3 C-17.21844846 -7.01294422 -9.08477811 -4.99597059 0 0 Z " fill="#6977A9" transform="translate(120,35)"/>
<path d="M0 0 C1.8125 0.3125 1.8125 0.3125 4 1 C5.66519519 1.34060811 7.33157466 1.67558396 9 2 C8.67 3.65 8.34 5.3 8 7 C8.7425 6.938125 9.485 6.87625 10.25 6.8125 C13.45383006 7.03094296 14.64031256 7.90250005 17 10 C16.67 11.32 16.34 12.64 16 14 C14.03220715 13.02481062 12.07492913 12.04029802 10.140625 11 C5.48837809 8.53930742 1.14641181 7.10280253 -4 6 C-2.84826645 3.53199953 -1.95216435 1.95216435 0 0 Z " fill="#475A85" transform="translate(90,34)"/>
<path d="M0 0 C0.97646484 0.04833984 1.95292969 0.09667969 2.95898438 0.14648438 C4.47008789 0.2305957 4.47008789 0.2305957 6.01171875 0.31640625 C7.55182617 0.3947168 7.55182617 0.3947168 9.12304688 0.47460938 C11.64877962 0.60383291 14.17407136 0.73877916 16.69921875 0.87890625 C17.32421875 3.75390625 17.32421875 3.75390625 17.69921875 6.87890625 C15.69921875 8.87890625 15.69921875 8.87890625 13.17724609 9.10595703 C12.14035645 9.0954834 11.1034668 9.08500977 10.03515625 9.07421875 C8.91367187 9.06777344 7.7921875 9.06132813 6.63671875 9.0546875 C5.46109375 9.03792969 4.28546875 9.02117187 3.07421875 9.00390625 C1.29917969 8.99037109 1.29917969 8.99037109 -0.51171875 8.9765625 C-3.44160648 8.95293437 -6.37109465 8.91999139 -9.30078125 8.87890625 C-8.97078125 7.55890625 -8.64078125 6.23890625 -8.30078125 4.87890625 C-8.30078125 5.53890625 -8.30078125 6.19890625 -8.30078125 6.87890625 C-5.00809305 6.7982599 -1.71728904 6.68540346 1.57421875 6.56640625 C2.97994141 6.53256836 2.97994141 6.53256836 4.4140625 6.49804688 C5.30996094 6.46259766 6.20585938 6.42714844 7.12890625 6.390625 C7.95632324 6.36444092 8.78374023 6.33825684 9.63623047 6.3112793 C12.09249807 6.04793988 12.09249807 6.04793988 13.69921875 2.87890625 C5.77921875 2.54890625 -2.14078125 2.21890625 -10.30078125 1.87890625 C-10.30078125 1.54890625 -10.30078125 1.21890625 -10.30078125 0.87890625 C-6.75064296 0.04802282 -3.63668758 -0.19140461 0 0 Z " fill="#6775A0" transform="translate(46.30078125,115.12109375)"/>
<path d="M0 0 C0.66 0.33 1.32 0.66 2 1 C2 1.66 2 2.32 2 3 C2.66 3 3.32 3 4 3 C4.33 2.01 4.66 1.02 5 0 C4.67 4.95 4.34 9.9 4 15 C3.67 15 3.34 15 3 15 C2.67 16.65 2.34 18.3 2 20 C0 20 0 20 -2.125 18.4375 C-4 16 -4 16 -4.5 12.8125 C-3.87339683 8.03465082 -2.16702745 4.2663353 0 0 Z " fill="#6373A8" transform="translate(72,48)"/>
<path d="M0 0 C0.33 0 0.66 0 1 0 C1 12.87 1 25.74 1 39 C-4.94 39 -10.88 39 -17 39 C-15.68 38.34 -14.36 37.68 -13 37 C-14.65 36.67 -16.3 36.34 -18 36 C-17.67 35.34 -17.34 34.68 -17 34 C-11.78217876 32.47283281 -8.06434289 33.51562364 -3 35 C-3 35.66 -3 36.32 -3 37 C-2.01 37 -1.02 37 0 37 C0 24.79 0 12.58 0 0 Z " fill="#4A5D97" transform="translate(141,88)"/>
<path d="M0 0 C2.39531135 3.1198191 4.60117791 6.33073142 6.75 9.625 C7.38421875 10.58664063 8.0184375 11.54828125 8.671875 12.5390625 C9.11015625 13.35117188 9.5484375 14.16328125 10 15 C9.67 15.66 9.34 16.32 9 17 C8.01 17 7.02 17 6 17 C5.67 18.32 5.34 19.64 5 21 C5 20.01 5 19.02 5 18 C3.68 17.67 2.36 17.34 1 17 C1.061875 15.906875 1.12375 14.81375 1.1875 13.6875 C1.37243237 10.08247389 1.37243237 10.08247389 -0.5 8.1875 C-0.995 7.795625 -1.49 7.40375 -2 7 C-2 6.34 -2 5.68 -2 5 C-2.99 4.67 -3.98 4.34 -5 4 C-4.34 4 -3.68 4 -3 4 C-2.67 3.01 -2.34 2.02 -2 1 C-1.34 0.67 -0.68 0.34 0 0 Z " fill="#6574A4" transform="translate(88,113)"/>
<path d="M0 0 C0 0.99 0 1.98 0 3 C0.639375 3.103125 1.27875 3.20625 1.9375 3.3125 C2.618125 3.539375 3.29875 3.76625 4 4 C4.33 4.99 4.66 5.98 5 7 C-0.61 7 -6.22 7 -12 7 C-12.33 5.02 -12.66 3.04 -13 1 C-11.68 1.33 -10.36 1.66 -9 2 C-9 1.34 -9 0.68 -9 0 C-5.93109813 -1.53445094 -3.29905734 -0.54984289 0 0 Z " fill="#384C84" transform="translate(118,41)"/>
<path d="M0 0 C8.415 1.485 8.415 1.485 17 3 C17 3.66 17 4.32 17 5 C0.85227273 13.43181818 0.85227273 13.43181818 -8 13 C-8 12.67 -8 12.34 -8 12 C-3.71 11.01 0.58 10.02 5 9 C5 8.34 5 7.68 5 7 C4.34 6.67 3.68 6.34 3 6 C3.33 4.68 3.66 3.36 4 2 C3.01 2.33 2.02 2.66 1 3 C0.67 2.01 0.34 1.02 0 0 Z " fill="#7381AC" transform="translate(126,155)"/>
<path d="M0 0 C1.65225586 0.00290039 1.65225586 0.00290039 3.33789062 0.00585938 C5.05588867 0.02422852 5.05588867 0.02422852 6.80859375 0.04296875 C8.53239258 0.04393555 8.53239258 0.04393555 10.29101562 0.04492188 C18.82442801 0.0899135 18.82442801 0.0899135 22.24609375 1.23046875 C22.87109375 4.10546875 22.87109375 4.10546875 23.24609375 7.23046875 C21.24609375 9.23046875 21.24609375 9.23046875 18.28100586 9.47338867 C17.0410083 9.46927979 15.80101074 9.4651709 14.5234375 9.4609375 C13.86275772 9.46047928 13.20207794 9.46002106 12.52137756 9.45954895 C11.12515466 9.45652796 9.72893508 9.44864617 8.33276367 9.4362793 C6.18851877 9.41801071 4.04470526 9.41576969 1.90039062 9.41601562 C-8.60647413 9.37790087 -8.60647413 9.37790087 -9.75390625 8.23046875 C-9.79471408 6.23088511 -9.79644981 4.23001621 -9.75390625 2.23046875 C-6.41089907 0.22187819 -3.87121158 -0.01579075 0 0 Z M-7.75390625 2.23046875 C-8.08390625 3.88046875 -8.41390625 5.53046875 -8.75390625 7.23046875 C-7.66202642 8.5482216 -7.66202642 8.5482216 -4.97827148 8.34399414 C-3.1637146 8.33613892 -3.1637146 8.33613892 -1.3125 8.328125 C-0.00732422 8.32490234 1.29785156 8.32167969 2.64257812 8.31835938 C4.03125065 8.31000276 5.41992252 8.3015378 6.80859375 8.29296875 C8.20117031 8.28795541 9.59374856 8.28339222 10.98632812 8.27929688 C14.40629245 8.26746309 17.82617219 8.25097755 21.24609375 8.23046875 C20.91609375 6.25046875 20.58609375 4.27046875 20.24609375 2.23046875 C11.00609375 2.23046875 1.76609375 2.23046875 -7.75390625 2.23046875 Z " fill="#8AE2B1" transform="translate(31.75390625,50.76953125)"/>
<path d="M0 0 C3.3 0 6.6 0 10 0 C10 0.33 10 0.66 10 1 C7.36 1 4.72 1 2 1 C2 16.18 2 31.36 2 47 C1.67 47 1.34 47 1 47 C1 33.47 1 19.94 1 6 C-0.32 6 -1.64 6 -3 6 C-3 6.66 -3 7.32 -3 8 C-3.66 8 -4.32 8 -5 8 C-5 8.66 -5 9.32 -5 10 C-6.32 9.67 -7.64 9.34 -9 9 C-8.0479279 7.99403703 -7.08812654 6.99538437 -6.125 6 C-5.32449219 5.1646875 -5.32449219 5.1646875 -4.5078125 4.3125 C-3 3 -3 3 -1 3 C-0.67 2.01 -0.34 1.02 0 0 Z " fill="#B9C2D5" transform="translate(120,80)"/>
<path d="M0 0 C1.32 0.33 2.64 0.66 4 1 C4.33 3.31 4.66 5.62 5 8 C5.66 8 6.32 8 7 8 C5.63016497 11.16115776 5.0109362 11.9927092 2 14 C1.29773859 12.75823305 0.61370891 11.50614401 -0.0625 10.25 C-0.44535156 9.55390625 -0.82820313 8.8578125 -1.22265625 8.140625 C-2.14472033 5.60147367 -1.91915623 4.50010495 -1 2 C-0.67 1.34 -0.34 0.68 0 0 Z " fill="#364A7F" transform="translate(70,108)"/>
<path d="M0 0 C2.375 0.3125 2.375 0.3125 5 1 C5.66 1.99 6.32 2.98 7 4 C8.7015625 4.4640625 8.7015625 4.4640625 10.4375 4.9375 C14.17305965 6.05161428 15.12956201 6.69922708 17 10 C14.69 10 12.38 10 10 10 C10 9.34 10 8.68 10 8 C8.35 8.33 6.7 8.66 5 9 C5 8.34 5 7.68 5 7 C4.34 7 3.68 7 3 7 C3 6.34 3 5.68 3 5 C1.68 5 0.36 5 -1 5 C-0.67 3.35 -0.34 1.7 0 0 Z " fill="#50649D" transform="translate(113,34)"/>
<path d="M0 0 C2.0625 1.6875 2.0625 1.6875 4 4 C3.75 6.75 3.75 6.75 3 9 C-1.01804691 9.84098656 -4.01803543 10.05404945 -8 9 C-5.89851796 5.01824456 -3.63094642 2.64960955 0 0 Z " fill="#7D8A8B" transform="translate(56,133)"/>
<path d="M0 0 C0.33 0 0.66 0 1 0 C1.05786668 3.79160297 1.09355054 7.58309311 1.125 11.375 C1.14175781 12.45523438 1.15851563 13.53546875 1.17578125 14.6484375 C1.18222656 15.6796875 1.18867187 16.7109375 1.1953125 17.7734375 C1.20578613 18.72653809 1.21625977 19.67963867 1.22705078 20.66162109 C1 23 1 23 -1 25 C-3.7406949 22.2593051 -3.46260246 20.32069671 -3.75 16.5 C-3.84796875 15.3346875 -3.9459375 14.169375 -4.046875 12.96875 C-4 10 -4 10 -2 8 C-2 9.32 -2 10.64 -2 12 C-1.34 12 -0.68 12 0 12 C0 8.04 0 4.08 0 0 Z " fill="#4F619A" transform="translate(74,56)"/>
<path d="M0 0 C9.24 0 18.48 0 28 0 C28 0.99 28 1.98 28 3 C26.02 3 24.04 3 22 3 C22 3.66 22 4.32 22 5 C20.02 5 18.04 5 16 5 C16 4.34 16 3.68 16 3 C10.72 2.34 5.44 1.68 0 1 C0 0.67 0 0.34 0 0 Z " fill="#E3EEF4" transform="translate(112,51)"/>
<path d="M0 0 C3.98486529 1.70779941 7.03592803 4.07185607 9 8 C9.2275015 9.87056791 9.40962811 11.74685958 9.5625 13.625 C9.64628906 14.62789062 9.73007813 15.63078125 9.81640625 16.6640625 C9.87699219 17.43492187 9.93757813 18.20578125 10 19 C8.68 19.33 7.36 19.66 6 20 C6.04125 18.783125 6.0825 17.56625 6.125 16.3125 C6.13128448 12.75548471 5.57052486 10.23343354 4 7 C3.67 6.01 3.34 5.02 3 4 C2.34 4 1.68 4 1 4 C0.67 2.68 0.34 1.36 0 0 Z " fill="#ECF0F2" transform="translate(55,144)"/>
<path d="M0 0 C0.66 0 1.32 0 2 0 C2.33 2.31 2.66 4.62 3 7 C1.75579353 7.5345256 0.50429064 8.05208611 -0.75 8.5625 C-1.44609375 8.85253906 -2.1421875 9.14257812 -2.859375 9.44140625 C-5.30012784 10.07831803 -6.6403655 9.80248831 -9 9 C-7.68 8.34 -6.36 7.68 -5 7 C-5.99 6.34 -6.98 5.68 -8 5 C-7.01 5 -6.02 5 -5 5 C-5 4.34 -5 3.68 -5 3 C-3.68 3 -2.36 3 -1 3 C-0.67 2.01 -0.34 1.02 0 0 Z " fill="#52639D" transform="translate(128,157)"/>
<path d="M0 0 C2.31 0 4.62 0 7 0 C6.33333333 1.33333333 5.66666667 2.66666667 5 4 C4.773125 4.721875 4.54625 5.44375 4.3125 6.1875 C3 8 3 8 -0.625 8.75 C-1.73875 8.8325 -2.8525 8.915 -4 9 C-4 6 -4 6 -3 4 C-2.01 4 -1.02 4 0 4 C0 2.68 0 1.36 0 0 Z " fill="#4F5F85" transform="translate(142,144)"/>
<path d="M0 0 C1.6875 3.5625 1.6875 3.5625 3 7 C1.68 7.33 0.36 7.66 -1 8 C-1 7.34 -1 6.68 -1 6 C-2.32 6.33 -3.64 6.66 -5 7 C-7 4 -7 4 -7 1 C-3.375 -1.125 -3.375 -1.125 0 0 Z " fill="#3B4B77" transform="translate(88,137)"/>
<path d="M0 0 C1.65322266 0.01740234 1.65322266 0.01740234 3.33984375 0.03515625 C4.99693359 0.04869141 4.99693359 0.04869141 6.6875 0.0625 C7.54214844 0.07410156 8.39679687 0.08570312 9.27734375 0.09765625 C8.94734375 1.74765625 8.61734375 3.39765625 8.27734375 5.09765625 C4.64734375 5.09765625 1.01734375 5.09765625 -2.72265625 5.09765625 C-3.05265625 3.77765625 -3.38265625 2.45765625 -3.72265625 1.09765625 C-2.72265625 0.09765625 -2.72265625 0.09765625 0 0 Z " fill="#E84C3D" transform="translate(42.72265625,75.90234375)"/>
<path d="M0 0 C0.66 0.33 1.32 0.66 2 1 C1.38511719 1.97839844 1.38511719 1.97839844 0.7578125 2.9765625 C-2.05999209 7.54706851 -4.6203149 11.75719663 -6 17 C-6.99 16.67 -7.98 16.34 -9 16 C-9 13.69 -9 11.38 -9 9 C-7.35 8.67 -5.7 8.34 -4 8 C-4.33 7.01 -4.66 6.02 -5 5 C-4.34 5 -3.68 5 -3 5 C-3.33 4.01 -3.66 3.02 -4 2 C-2.125 0.9375 -2.125 0.9375 0 0 Z " fill="#7D88A8" transform="translate(84,30)"/>
<path d="M0 0 C2.97 0.495 2.97 0.495 6 1 C5.38983051 6.49152542 5.38983051 6.49152542 3.5625 8.875 C2 10 2 10 0 10 C-0.33 10.66 -0.66 11.32 -1 12 C-0.67 8.04 -0.34 4.08 0 0 Z " fill="#3B497D" transform="translate(58,66)"/>
<path d="M0 0 C-0.33 1.65 -0.66 3.3 -1 5 C-1.66 5 -2.32 5 -3 5 C-3.33 5.66 -3.66 6.32 -4 7 C-5.98 7 -7.96 7 -10 7 C-10.33 6.01 -10.66 5.02 -11 4 C-4.5 0 -4.5 0 0 0 Z " fill="#556490" transform="translate(81,33)"/>
<path d="M0 0 C0.97646484 0.04833984 1.95292969 0.09667969 2.95898438 0.14648438 C4.47008789 0.2305957 4.47008789 0.2305957 6.01171875 0.31640625 C7.55182617 0.3947168 7.55182617 0.3947168 9.12304688 0.47460938 C11.64877962 0.60383291 14.17407136 0.73877916 16.69921875 0.87890625 C17.02921875 2.85890625 17.35921875 4.83890625 17.69921875 6.87890625 C16.70921875 7.37390625 16.70921875 7.37390625 15.69921875 7.87890625 C15.03921875 6.22890625 14.37921875 4.57890625 13.69921875 2.87890625 C5.77921875 2.54890625 -2.14078125 2.21890625 -10.30078125 1.87890625 C-10.30078125 1.54890625 -10.30078125 1.21890625 -10.30078125 0.87890625 C-6.75064296 0.04802282 -3.63668758 -0.19140461 0 0 Z " fill="#9BA7C5" transform="translate(46.30078125,115.12109375)"/>
<path d="M0 0 C8.57142857 0.71428571 8.57142857 0.71428571 12 4 C11.67 5.32 11.34 6.64 11 8 C7 6 3 4 -1 2 C-0.67 1.34 -0.34 0.68 0 0 Z " fill="#55658E" transform="translate(95,40)"/>
<path d="M0 0 C2.46140365 2.46140365 3.30326986 4.78456293 4.625 8 C5.07101563 9.0725 5.51703125 10.145 5.9765625 11.25 C7 14 7 14 7 16 C4.03 15.505 4.03 15.505 1 15 C1.020625 14.01 1.04125 13.02 1.0625 12 C1.07081428 7.93431926 0.56468467 4.02337824 0 0 Z " fill="#7382AC" transform="translate(81,97)"/>
<path d="M0 0 C2.125 0.9375 2.125 0.9375 4 2 C3.34 2 2.68 2 2 2 C1.67 3.65 1.34 5.3 1 7 C-0.98 7 -2.96 7 -5 7 C-5.33 7.99 -5.66 8.98 -6 10 C-7.32 9.67 -8.64 9.34 -10 9 C-8.71142987 7.68445979 -7.41904109 6.37265903 -6.125 5.0625 C-5.04605469 3.96615234 -5.04605469 3.96615234 -3.9453125 2.84765625 C-2 1 -2 1 0 0 Z " fill="#D6CCD0" transform="translate(140,70)"/>
<path d="M0 0 C0.66 0 1.32 0 2 0 C2.5625 1.9375 2.5625 1.9375 3 4 C2.67 4.33 2.34 4.66 2 5 C5.63 5 9.26 5 13 5 C13.33 5.66 13.66 6.32 14 7 C8.39 7 2.78 7 -3 7 C-3.33 5.02 -3.66 3.04 -4 1 C-2.68 1.33 -1.36 1.66 0 2 C0 1.34 0 0.68 0 0 Z " fill="#314378" transform="translate(109,41)"/>
<path d="M0 0 C0.33 1.98 0.66 3.96 1 6 C0.01 6.495 0.01 6.495 -1 7 C-1.33 5.02 -1.66 3.04 -2 1 C-9.92 1 -17.84 1 -26 1 C-26 0.67 -26 0.34 -26 0 C-7.14893617 -2.38297872 -7.14893617 -2.38297872 0 0 Z " fill="#70D89B" transform="translate(54,52)"/>
<path d="M0 0 C0.66 0.33 1.32 0.66 2 1 C1.67 1.99 1.34 2.98 1 4 C1.66 4.33 2.32 4.66 3 5 C2.67 5.66 2.34 6.32 2 7 C3.32 7.66 4.64 8.32 6 9 C1.375 11.125 1.375 11.125 -2 10 C-4.14255793 10.38932856 -4.14255793 10.38932856 -6 11 C-4.71937515 9.2925002 -3.38232443 7.62626404 -2 6 C-1.34 6 -0.68 6 0 6 C-0.66 4.35 -1.32 2.7 -2 1 C-1.34 0.67 -0.68 0.34 0 0 Z " fill="#D5665C" transform="translate(136,61)"/>
<path d="M0 0 C0.70125 0.12375 1.4025 0.2475 2.125 0.375 C2.125 1.035 2.125 1.695 2.125 2.375 C3.115 2.705 4.105 3.035 5.125 3.375 C4.073125 3.643125 3.02125 3.91125 1.9375 4.1875 C-1.45019246 5.2426829 -3.94589567 6.42226378 -6.875 8.375 C-7.535 7.715 -8.195 7.055 -8.875 6.375 C-3.7809081 0.49316193 -3.7809081 0.49316193 0 0 Z " fill="#8B9CA1" transform="translate(80.875,115.625)"/>
<path d="M0 0 C1.27617188 0.02320312 2.55234375 0.04640625 3.8671875 0.0703125 C5.78917969 0.09738281 5.78917969 0.09738281 7.75 0.125 C9.23113281 0.15980469 9.23113281 0.15980469 10.7421875 0.1953125 C10.7421875 0.5253125 10.7421875 0.8553125 10.7421875 1.1953125 C6.4521875 1.1953125 2.1621875 1.1953125 -2.2578125 1.1953125 C-1.9278125 2.8453125 -1.5978125 4.4953125 -1.2578125 6.1953125 C0.0621875 6.5253125 1.3821875 6.8553125 2.7421875 7.1953125 C1.7521875 7.1953125 0.7621875 7.1953125 -0.2578125 7.1953125 C-0.2578125 7.8553125 -0.2578125 8.5153125 -0.2578125 9.1953125 C-2.7328125 8.2053125 -2.7328125 8.2053125 -5.2578125 7.1953125 C-5.3828125 4.8203125 -5.3828125 4.8203125 -5.2578125 2.1953125 C-3.2578125 0.1953125 -3.2578125 0.1953125 0 0 Z " fill="#E5978B" transform="translate(40.2578125,72.8046875)"/>
<path d="M0 0 C1.1446875 0.2784375 1.1446875 0.2784375 2.3125 0.5625 C5.08967375 1.22819173 5.08967375 1.22819173 8 0 C8 0.66 8 1.32 8 2 C9.2065625 2.433125 9.2065625 2.433125 10.4375 2.875 C13 4 13 4 14 6 C8.14311354 6.73211081 4.4958396 4.48028193 0 1 C0 0.67 0 0.34 0 0 Z " fill="#53618C" transform="translate(98,158)"/>
<path d="M0 0 C3.63 0.33 7.26 0.66 11 1 C11 1.66 11 2.32 11 3 C4.25 7 4.25 7 2 7 C2.04125 6.21625 2.0825 5.4325 2.125 4.625 C2.28728734 1.83883881 2.28728734 1.83883881 0 0 Z " fill="#818AAF" transform="translate(132,157)"/>
<path d="M0 0 C0.66 0 1.32 0 2 0 C3.59138085 4.17737474 4.21278058 7.53160785 4 12 C3.34 10.68 2.68 9.36 2 8 C1.67 9.65 1.34 11.3 1 13 C0.67 13 0.34 13 0 13 C-0.144375 11.906875 -0.28875 10.81375 -0.4375 9.6875 C-0.88288104 6.06877013 -0.88288104 6.06877013 -2 3 C-1.34 3 -0.68 3 0 3 C0 2.01 0 1.02 0 0 Z " fill="#7B8989" transform="translate(75,132)"/>
<path d="M0 0 C0.33 0 0.66 0 1 0 C1.144375 0.763125 1.28875 1.52625 1.4375 2.3125 C1.9632594 5.08172908 1.9632594 5.08172908 3 8 C2.67 8.99 2.34 9.98 2 11 C1.34 11 0.68 11 0 11 C-0.33 10.34 -0.66 9.68 -1 9 C-1.99 9.99 -2.98 10.98 -4 12 C-3.33501617 7.61110675 -1.81242323 4.0188515 0 0 Z " fill="#4B5D97" transform="translate(74,40)"/>
<path d="M0 0 C4.95 0.99 4.95 0.99 10 2 C9.34 3.65 8.68 5.3 8 7 C6.35 7 4.7 7 3 7 C3.33 5.35 3.66 3.7 4 2 C2.68 2 1.36 2 0 2 C0 1.34 0 0.68 0 0 Z " fill="#354B7D" transform="translate(95,34)"/>
<path d="M0 0 C3.59634744 3.49359465 6.83451967 7.11098131 10 11 C9.01 11.495 9.01 11.495 8 12 C8 11.34 8 10.68 8 10 C6.35 9.67 4.7 9.34 3 9 C3 7.68 3 6.36 3 5 C2.01 4.67 1.02 4.34 0 4 C0 2.68 0 1.36 0 0 Z " fill="#838EB4" transform="translate(98,130)"/>
<path d="M0 0 C1.32 1.32 2.64 2.64 4 4 C3.67 4.66 3.34 5.32 3 6 C2.01 6 1.02 6 0 6 C-0.33 7.32 -0.66 8.64 -1 10 C-1 9.01 -1 8.02 -1 7 C-2.32 6.67 -3.64 6.34 -5 6 C-4.67 4.35 -4.34 2.7 -4 1 C-2.68 1.66 -1.36 2.32 0 3 C0 2.01 0 1.02 0 0 Z " fill="#6A7CAE" transform="translate(94,124)"/>
<path d="M0 0 C0.33 1.32 0.66 2.64 1 4 C2.65 3.01 4.3 2.02 6 1 C6.33 1.99 6.66 2.98 7 4 C5.8125 6.125 5.8125 6.125 4 8 C2.68 8.33 1.36 8.66 0 9 C0 6.03 0 3.06 0 0 Z " fill="#CBD4DD" transform="translate(94,88)"/>
<path d="M0 0 C0.33 0 0.66 0 1 0 C1.39271781 3.12304165 1.76113726 6.24847572 2.125 9.375 C2.23714844 10.26445313 2.34929687 11.15390625 2.46484375 12.0703125 C2.56152344 12.92109375 2.65820312 13.771875 2.7578125 14.6484375 C2.8520752 15.43395996 2.94633789 16.21948242 3.04345703 17.02880859 C3 19 3 19 1 21 C-0.50382815 13.65485589 -1.23649903 7.4189942 0 0 Z " fill="#7C88AF" transform="translate(75,66)"/>
<path d="M0 0 C0.66 0 1.32 0 2 0 C2 1.32 2 2.64 2 4 C1.01 4.495 1.01 4.495 0 5 C0.33 5.66 0.66 6.32 1 7 C-0.9375 7.5625 -0.9375 7.5625 -3 8 C-3.33 7.67 -3.66 7.34 -4 7 C-5.98 7.99 -5.98 7.99 -8 9 C-7.04270084 7.87411986 -6.08412105 6.7493285 -5.125 5.625 C-4.59132812 4.99851563 -4.05765625 4.37203125 -3.5078125 3.7265625 C-2.38567993 2.44163349 -1.20628025 1.20628025 0 0 Z " fill="#A1ACAC" transform="translate(59,128)"/>
<path d="M0 0 C0.66 0.66 1.32 1.32 2 2 C0.68 3.65 -0.64 5.3 -2 7 C-2.99 6.67 -3.98 6.34 -5 6 C-6.99673484 5.64763503 -8.99650739 5.31165441 -11 5 C-11 4.67 -11 4.34 -11 4 C-9.5459375 3.814375 -9.5459375 3.814375 -8.0625 3.625 C-6.5465625 3.315625 -6.5465625 3.315625 -5 3 C-4.67 2.34 -4.34 1.68 -4 1 C-2.0625 0.25 -2.0625 0.25 0 0 Z " fill="#A8B2B7" transform="translate(74,122)"/>
<path d="M0 0 C0 3.10551666 -0.5393715 4.35261084 -2 7 C-1.34 7 -0.68 7 0 7 C-0.66 8.32 -1.32 9.64 -2 11 C-2.33 10.01 -2.66 9.02 -3 8 C-4.32 8.33 -5.64 8.66 -7 9 C-5.44499019 5.18315774 -2.96404505 2.80804268 0 0 Z " fill="#D56760" transform="translate(114,78)"/>
<path d="M0 0 C0.33 1.32 0.66 2.64 1 4 C1.99 4 2.98 4 4 4 C4.33 3.34 4.66 2.68 5 2 C4.67 3.32 4.34 4.64 4 6 C4.66 6 5.32 6 6 6 C5.67 6.99 5.34 7.98 5 9 C3.35 9 1.7 9 0 9 C0 6.03 0 3.06 0 0 Z " fill="#364879" transform="translate(59,83)"/>
<path d="M0 0 C-0.55312735 4.02992782 -1.1558062 8.02022924 -2 12 C-2.66 11.67 -3.32 11.34 -4 11 C-4 8.36 -4 5.72 -4 3 C-5.32 2.34 -6.64 1.68 -8 1 C-2.25 0 -2.25 0 0 0 Z " fill="#D05E5B" transform="translate(146,59)"/>
<path d="M0 0 C0.33 0 0.66 0 1 0 C1 2.31 1 4.62 1 7 C5.29 7.33 9.58 7.66 14 8 C14 8.33 14 8.66 14 9 C9.38 9.33 4.76 9.66 0 10 C0 6.7 0 3.4 0 0 Z " fill="#5568A6" transform="translate(122,117)"/>
<path d="M0 0 C2 1 2 1 3.125 4.3125 C4 8 4 8 4 12 C3.34 12 2.68 12 2 12 C2 11.34 2 10.68 2 10 C1.34 10 0.68 10 0 10 C0 6.7 0 3.4 0 0 Z " fill="#ED8B15" transform="translate(97,106)"/>
<path d="M0 0 C-1.30636994 2.61273988 -2.28409758 2.97236124 -5 4 C-8.25 4.125 -8.25 4.125 -11 4 C-11 3.34 -11 2.68 -11 2 C-7.09100481 -1.10420207 -4.76837457 -1.21981675 0 0 Z " fill="#4F649B" transform="translate(88,113)"/>
<path d="M0 0 C0.66 0.33 1.32 0.66 2 1 C2 3.64 2 6.28 2 9 C1.34 9 0.68 9 0 9 C-1.33783393 9.31478446 -2.67203709 9.64587656 -4 10 C-3.25130208 8.27473958 -2.50260417 6.54947917 -1.75390625 4.82421875 C-1.10038058 3.24288979 -0.54108198 1.62324594 0 0 Z " fill="#939FA0" transform="translate(59,153)"/>
<path d="M0 0 C2.42945561 3.64418341 2.0828781 4.92923364 1.625 9.1875 C1.51414063 10.27417969 1.40328125 11.36085938 1.2890625 12.48046875 C1.19367187 13.31191406 1.09828125 14.14335938 1 15 C0.67 15 0.34 15 0 15 C-1.15774649 10.36901402 -2.19218189 4.38436379 0 0 Z " fill="#5E6A8F" transform="translate(58,76)"/>
<path d="M0 0 C3.2542015 2.83430453 4.5206753 4.68607774 5 9 C3.68 9 2.36 9 1 9 C1 8.34 1 7.68 1 7 C0.34 6.67 -0.32 6.34 -1 6 C-0.34 5.34 0.32 4.68 1 4 C0.34 3.34 -0.32 2.68 -1 2 C-0.67 1.34 -0.34 0.68 0 0 Z " fill="#3B4F8A" transform="translate(86,136)"/>
<path d="M0 0 C0 3 0 3 -1 5 C-1.66 5 -2.32 5 -3 5 C-3 5.66 -3 6.32 -3 7 C-2.34 7.33 -1.68 7.66 -1 8 C-1.99 8.99 -2.98 9.98 -4 11 C-4.66 9.68 -5.32 8.36 -6 7 C-4.02 4.69 -2.04 2.38 0 0 Z " fill="#ECF2F1" transform="translate(79,120)"/>
<path d="M0 0 C0 0.66 0 1.32 0 2 C-1.41623216 2.05447047 -2.83308191 2.09300508 -4.25 2.125 C-5.03890625 2.14820312 -5.8278125 2.17140625 -6.640625 2.1953125 C-9.20731941 1.9828378 -10.7916067 1.28654105 -13 0 C-4.57142857 -1.28571429 -4.57142857 -1.28571429 0 0 Z " fill="#CDDDE9" transform="translate(135,81)"/>
<path d="M0 0 C-1.75 3.875 -1.75 3.875 -4 5 C-4 4.34 -4 3.68 -4 3 C-5.65 3 -7.3 3 -9 3 C-8 1 -8 1 -5.625 -0.1875 C-3 -1 -3 -1 0 0 Z " fill="#DB534F" transform="translate(137,71)"/>
<path d="M0 0 C2.475 0.495 2.475 0.495 5 1 C5 2.65 5 4.3 5 6 C3.68 6 2.36 6 1 6 C0.67 4.02 0.34 2.04 0 0 Z " fill="#455581" transform="translate(88,146)"/>
<path d="M0 0 C3.76607955 1.25535985 4.26441793 2.52883585 6 6 C6 6.99 6 7.98 6 9 C5.01 9 4.02 9 3 9 C2.01 6.03 1.02 3.06 0 0 Z " fill="#495481" transform="translate(66,114)"/>
<path d="M0 0 C2.35694954 0.09031574 4.71153582 0.24688128 7.0625 0.4375 C8.35285156 0.53933594 9.64320312 0.64117187 10.97265625 0.74609375 C12.47119141 0.87177734 12.47119141 0.87177734 14 1 C14 1.33 14 1.66 14 2 C12.86111328 2.07347656 12.86111328 2.07347656 11.69921875 2.1484375 C10.70535156 2.22320312 9.71148437 2.29796875 8.6875 2.375 C7.20830078 2.47941406 7.20830078 2.47941406 5.69921875 2.5859375 C2.78471567 2.83865472 2.78471567 2.83865472 0 5 C-0.5625 3.0625 -0.5625 3.0625 -1 1 C-0.67 0.67 -0.34 0.34 0 0 Z " fill="#DBC0C4" transform="translate(114,73)"/>
<path d="M0 0 C1.32 0.33 2.64 0.66 4 1 C3.67 3.31 3.34 5.62 3 8 C2.01 7.67 1.02 7.34 0 7 C0 4.69 0 2.38 0 0 Z " fill="#6B79A9" transform="translate(75,39)"/>
<path d="M0 0 C0 0.66 0 1.32 0 2 C0.99 2.33 1.98 2.66 3 3 C2.67 3.99 2.34 4.98 2 6 C-3.875 3.25 -3.875 3.25 -5 1 C-2 0 -2 0 0 0 Z " fill="#38467A" transform="translate(101,154)"/>
<path d="M0 0 C0.33 1.32 0.66 2.64 1 4 C2.32 4.33 3.64 4.66 5 5 C4.67 5.66 4.34 6.32 4 7 C4 7.66 4 8.32 4 9 C0.63279613 7.60667426 -0.9859524 6.0210714 -3 3 C-2.34 3 -1.68 3 -1 3 C-0.67 2.01 -0.34 1.02 0 0 Z " fill="#5F6D93" transform="translate(94,149)"/>
<path d="M0 0 C2 1 2 1 3 3 C2.34 3 1.68 3 1 3 C0.71125 3.639375 0.4225 4.27875 0.125 4.9375 C-1 7 -1 7 -3 8 C-3.36923077 3.44615385 -3.36923077 3.44615385 -1.5 1.1875 C-1.005 0.795625 -0.51 0.40375 0 0 Z " fill="#92A0A1" transform="translate(67,135)"/>
<path d="M0 0 C2.97 0.33 5.94 0.66 9 1 C9 1.66 9 2.32 9 3 C5.37 3 1.74 3 -2 3 C-1.34 2.01 -0.68 1.02 0 0 Z " fill="#C54C40" transform="translate(42,78)"/>
<path d="M0 0 C1.5 1.0625 1.5 1.0625 3 3 C3.1875 6.6875 3.1875 6.6875 3 10 C2.01 10.495 2.01 10.495 1 11 C0.12132271 7.26562152 -0.08912219 3.83225427 0 0 Z " fill="#DFE8F4" transform="translate(87,120)"/>
<path d="M0 0 C3.16115776 1.36983503 3.9927092 1.9890638 6 5 C3.69 5 1.38 5 -1 5 C-0.67 3.35 -0.34 1.7 0 0 Z " fill="#6A7BA7" transform="translate(124,39)"/>
<path d="M0 0 C-0.33 0.66 -0.66 1.32 -1 2 C-2.65 2 -4.3 2 -6 2 C-6 2.66 -6 3.32 -6 4 C-6.66 3.67 -7.32 3.34 -8 3 C-8 2.01 -8 1.02 -8 0 C-4.71023192 -1.09658936 -3.28696233 -0.79953138 0 0 Z " fill="#6370A0" transform="translate(101,32)"/>
<path d="M0 0 C1.98 0 3.96 0 6 0 C7.125 4.75 7.125 4.75 6 7 C5.34 7 4.68 7 4 7 C4 5.02 4 3.04 4 1 C2.68 0.67 1.36 0.34 0 0 Z " fill="#EFC362" transform="translate(50,95)"/>
<path d="M0 0 C0.66 0.33 1.32 0.66 2 1 C1.34 2.32 0.68 3.64 0 5 C-0.66 5 -1.32 5 -2 5 C-2 5.66 -2 6.32 -2 7 C-3.32 6.67 -4.64 6.34 -6 6 C-4.02 4.02 -2.04 2.04 0 0 Z " fill="#DAB9B8" transform="translate(117,83)"/>
<path d="M0 0 C0.66 0.33 1.32 0.66 2 1 C2 3.64 2 6.28 2 9 C1.01 9.495 1.01 9.495 0 10 C-1.125 3.375 -1.125 3.375 0 0 Z " fill="#4D5A86" transform="translate(59,53)"/>
<path d="M0 0 C2.97 0.495 2.97 0.495 6 1 C6.33 2.98 6.66 4.96 7 7 C6.01 7.495 6.01 7.495 5 8 C4.67 6.02 4.34 4.04 4 2 C2.68 2 1.36 2 0 2 C0 1.34 0 0.68 0 0 Z " fill="#94DDBA" transform="translate(48,51)"/>
<path d="M0 0 C6.75 2.625 6.75 2.625 9 6 C7.02 6 5.04 6 3 6 C3 4.68 3 3.36 3 2 C2.01 2 1.02 2 0 2 C0 1.34 0 0.68 0 0 Z " fill="#828DB3" transform="translate(115,33)"/>
<path d="M0 0 C2.31 0 4.62 0 7 0 C6.690625 0.598125 6.38125 1.19625 6.0625 1.8125 C4.89790296 4.08956772 4.89790296 4.08956772 4 7 C3.34 7 2.68 7 2 7 C2.33 5.02 2.66 3.04 3 1 C2.01 0.67 1.02 0.34 0 0 Z " fill="#2F4272" transform="translate(142,144)"/>
<path d="M0 0 C2.625 -0.1875 2.625 -0.1875 5 0 C5 0.66 5 1.32 5 2 C5.99 2.33 6.98 2.66 8 3 C4.7 3 1.4 3 -2 3 C-1.34 2.01 -0.68 1.02 0 0 Z " fill="#8292AB" transform="translate(78,116)"/>
<path d="M0 0 C1.32 0.66 2.64 1.32 4 2 C3.34 3.32 2.68 4.64 2 6 C1.01 5.67 0.02 5.34 -1 5 C-0.67 3.35 -0.34 1.7 0 0 Z " fill="#32C376" transform="translate(24,53)"/>
<path d="M0 0 C1.65 0.33 3.3 0.66 5 1 C5.33 1.99 5.66 2.98 6 4 C3.69 3.67 1.38 3.34 -1 3 C-0.67 2.01 -0.34 1.02 0 0 Z " fill="#5A699C" transform="translate(127,44)"/>
<path d="M0 0 C2.97 1.98 2.97 1.98 6 4 C3 6 3 6 1 6 C0.67 4.02 0.34 2.04 0 0 Z M-1 6 C1 7 1 7 1 7 Z " fill="#7584AF" transform="translate(113,146)"/>
<path d="M0 0 C0.99 0.33 1.98 0.66 3 1 C2.2884375 1.8353125 2.2884375 1.8353125 1.5625 2.6875 C-0.12395996 5.18346074 -0.58953107 7.0446237 -1 10 C-1.33 10 -1.66 10 -2 10 C-1.85950482 8.52031676 -1.71245174 7.04125484 -1.5625 5.5625 C-1.48128906 4.73878906 -1.40007813 3.91507813 -1.31640625 3.06640625 C-1 1 -1 1 0 0 Z " fill="#D0D4D5" transform="translate(42,147)"/>
<path d="M0 0 C2.31 0.33 4.62 0.66 7 1 C7.33 1.99 7.66 2.98 8 4 C6.125 4.625 6.125 4.625 4 5 C3.34 4.34 2.68 3.68 2 3 C2.33 2.67 2.66 2.34 3 2 C2.01 1.34 1.02 0.68 0 0 Z " fill="#4D609C" transform="translate(112,161)"/>
<path d="M0 0 C0.99 0 1.98 0 3 0 C2.8125 1.875 2.8125 1.875 2 4 C-0.5625 5.25 -0.5625 5.25 -3 6 C-1.125 1.125 -1.125 1.125 0 0 Z " fill="#E4493C" transform="translate(108,86)"/>
<path d="" fill="#8A8A8A" transform="translate(0,0)"/>
</svg>
